<svg width="44" height="40" viewBox="0 0 44 40" fill="none" xmlns="http://www.w3.org/2000/svg">
<mask id="mask0_1001_1673" style="mask-type:alpha" maskUnits="userSpaceOnUse" x="15" y="0" width="29" height="35">
<path d="M36.1024 0L15.5127 1.7143V10.7144V19.7145V20.0002L29.0512 25.7145V32.8574L38.0768 34.5717L43.9999 9.14294L36.1024 0Z" fill="#C4C4C4"/>
</mask>
<g mask="url(#mask0_1001_1673)">
<path d="M16.9234 19.1835V5.32583C19.7031 4.2516 22.7426 3.71448 26.0418 3.71448C30.5101 3.71448 34.0692 4.97969 36.719 7.51012C39.3168 9.9928 40.6157 13.2991 40.6157 17.4289C40.6157 21.5587 39.2778 24.865 36.6021 27.3477C33.9263 29.8781 30.3932 31.1433 26.0029 31.1433C22.6257 31.1433 19.9629 30.7136 18.0145 29.8542L18.5211 26.0586C20.4175 27.0135 22.9114 27.4909 26.0029 27.4909C29.1982 27.4909 31.7311 26.548 33.6016 24.6621C35.42 22.8478 36.3293 20.4368 36.3293 17.4289C36.3293 14.3972 35.446 11.9742 33.6795 10.1599C31.861 8.29789 29.3151 7.36688 26.0418 7.36688C23.9376 7.36688 22.3399 7.55786 21.2488 7.93981V15.5311H27.2498V19.1835H16.9234Z" fill="white"/>
</g>
<mask id="mask1_1001_1673" style="mask-type:alpha" maskUnits="userSpaceOnUse" x="0" y="5" width="29" height="35">
<path d="M7.89756 40L28.4873 38.2857V29.2856V20.2855V19.9998L14.9488 14.2855V7.14256L5.9232 5.42825L0.000118256 30.8571L7.89756 40Z" fill="#C4C4C4"/>
</mask>
<g mask="url(#mask1_1001_1673)">
<path d="M27.0776 20.8168V34.6744C24.2979 35.7486 21.2584 36.2858 17.9591 36.2858C13.4909 36.2858 9.93181 35.0205 7.28202 32.4901C4.68417 30.0074 3.38525 26.7012 3.38525 22.5713C3.38525 18.4415 4.72314 15.1352 7.39892 12.6526C10.0747 10.1221 13.6078 8.85693 17.9981 8.85693C21.3753 8.85693 24.0381 9.28663 25.9865 10.146L25.4799 13.9417C23.5835 12.9868 21.0895 12.5093 17.9981 12.5093C14.8028 12.5093 12.2699 13.4523 10.3994 15.3382C8.58094 17.1524 7.67169 19.5635 7.67169 22.5713C7.67169 25.6031 8.55496 28.0261 10.3215 29.8403C12.14 31.7024 14.6859 32.6334 17.9591 32.6334C20.0634 32.6334 21.6611 32.4424 22.7522 32.0604V24.4692H16.7511V20.8168H27.0776Z" fill="white"/>
</g>
</svg>
